<svg width="61" height="52" viewBox="0 0 61 52" fill="none" xmlns="http://www.w3.org/2000/svg">
<g opacity="0.5">
<path d="M31.306 1.75H29.231C26.0553 1.75 23.481 4.32436 23.481 7.5V14.231C23.481 17.4066 26.0553 19.981 29.231 19.981H31.306C34.4816 19.981 37.056 17.4066 37.056 14.231V7.5C37.056 4.32436 34.4816 1.75 31.306 1.75Z" stroke="white" stroke-width="3.5" stroke-miterlimit="10"/>
<path d="M31.306 32.019H29.231C26.0553 32.019 23.481 34.5934 23.481 37.769V44.5C23.481 47.6756 26.0553 50.25 29.231 50.25H31.306C34.4816 50.25 37.056 47.6756 37.056 44.5V37.769C37.056 34.5934 34.4816 32.019 31.306 32.019Z" stroke="white" stroke-width="3.5" stroke-miterlimit="10"/>
</g>
<g opacity="0.5">
<path d="M58.787 27.426V25.351C58.787 22.1754 56.2126 19.601 53.037 19.601H46.306C43.1304 19.601 40.556 22.1754 40.556 25.351V27.426C40.556 30.6017 43.1304 33.176 46.306 33.176H53.037C56.2126 33.176 58.787 30.6017 58.787 27.426Z" stroke="white" stroke-width="3.5" stroke-miterlimit="10"/>
<path d="M19.981 27.426V25.351C19.981 22.1754 17.4066 19.601 14.231 19.601H7.49996C4.32432 19.601 1.74996 22.1754 1.74996 25.351V27.426C1.74996 30.6017 4.32432 33.176 7.49996 33.176H14.231C17.4066 33.176 19.981 30.6017 19.981 27.426Z" stroke="white" stroke-width="3.5" stroke-miterlimit="10"/>
</g>
</svg>
