<svg width="34" height="54" viewBox="0 0 34 54" fill="none" xmlns="http://www.w3.org/2000/svg">
<g filter="url(#filter0_d_101_61)">
<path d="M13.2888 32.7273V32.4716C13.3172 29.7585 13.6013 27.5994 14.1411 25.9943C14.6808 24.3892 15.4479 23.0895 16.4422 22.0952C17.4365 21.1009 18.6297 20.1847 20.0218 19.3466C20.8598 18.8352 21.6127 18.2315 22.2803 17.5355C22.9479 16.8253 23.4735 16.0085 23.857 15.0852C24.2547 14.1619 24.4536 13.1392 24.4536 12.017C24.4536 10.625 24.1269 9.41761 23.4735 8.39489C22.82 7.37216 21.9465 6.58381 20.8527 6.02983C19.759 5.47585 18.5445 5.19886 17.2093 5.19886C16.0445 5.19886 14.9223 5.44034 13.8428 5.92329C12.7632 6.40625 11.8612 7.16619 11.1368 8.20312C10.4124 9.24006 9.99334 10.5966 9.87971 12.2727H4.51039C4.62402 9.85795 5.24902 7.79119 6.38539 6.07244C7.53596 4.35369 9.04874 3.03977 10.9237 2.13068C12.8129 1.22159 14.9081 0.767044 17.2093 0.767044C19.7093 0.767044 21.8825 1.2642 23.7291 2.25852C25.5899 3.25284 27.0246 4.61648 28.0331 6.34943C29.0558 8.08238 29.5672 10.0568 29.5672 12.2727C29.5672 13.8352 29.3257 15.2486 28.8428 16.5128C28.374 17.777 27.6922 18.9062 26.7973 19.9006C25.9166 20.8949 24.8513 21.7756 23.6013 22.5426C22.3513 23.3239 21.3499 24.1477 20.597 25.0142C19.8442 25.8665 19.2973 26.8821 18.9564 28.0611C18.6155 29.2401 18.4308 30.7102 18.4024 32.4716V32.7273H13.2888ZM16.0161 45.3409C14.9649 45.3409 14.0629 44.9645 13.3101 44.2116C12.5573 43.4588 12.1808 42.5568 12.1808 41.5057C12.1808 40.4545 12.5573 39.5526 13.3101 38.7997C14.0629 38.0469 14.9649 37.6705 16.0161 37.6705C17.0672 37.6705 17.9692 38.0469 18.722 38.7997C19.4749 39.5526 19.8513 40.4545 19.8513 41.5057C19.8513 42.2017 19.6737 42.8409 19.3186 43.4233C18.9777 44.0057 18.5161 44.4744 17.9337 44.8295C17.3655 45.1705 16.7263 45.3409 16.0161 45.3409Z" fill="#99A4AB"/>
</g>
<defs>
<filter id="filter0_d_101_61" x="0.510376" y="0.767029" width="33.0568" height="52.5739" filterUnits="userSpaceOnUse" color-interpolation-filters="sRGB">
<feFlood flood-opacity="0" result="BackgroundImageFix"/>
<feColorMatrix in="SourceAlpha" type="matrix" values="0 0 0 0 0 0 0 0 0 0 0 0 0 0 0 0 0 0 127 0" result="hardAlpha"/>
<feOffset dy="4"/>
<feGaussianBlur stdDeviation="2"/>
<feComposite in2="hardAlpha" operator="out"/>
<feColorMatrix type="matrix" values="0 0 0 0 0 0 0 0 0 0 0 0 0 0 0 0 0 0 0.25 0"/>
<feBlend mode="normal" in2="BackgroundImageFix" result="effect1_dropShadow_101_61"/>
<feBlend mode="normal" in="SourceGraphic" in2="effect1_dropShadow_101_61" result="shape"/>
</filter>
</defs>
</svg>
